<?xml version="1.0" encoding="UTF-8"?>
<svg width="16px" height="11px" viewBox="0 0 16 11" version="1.1" xmlns="http://www.w3.org/2000/svg" xmlns:xlink="http://www.w3.org/1999/xlink">
    <!-- Generator: Sketch 52.6 (67491) - http://www.bohemiancoding.com/sketch -->
    <title>Untitled</title>
    <desc>Created with Sketch.</desc>
    <g id="Page-1" stroke="none" stroke-width="1" fill="none" fill-rule="evenodd">
        <g id="ios-arrow-round-forward" fill="#000000">
            <path d="M10.2,0.205555556 C9.91666667,0.483333333 9.91666667,0.944444444 10.1944444,1.22777778 L13.5722222,4.61111111 L0.716666667,4.61111111 C0.322222222,4.61111111 0,4.93333333 0,5.33333333 C0,5.73333333 0.322222222,6.05555556 0.716666667,6.05555556 L13.5666667,6.05555556 L10.1888889,9.43888889 C9.91111111,9.72222222 9.91666667,10.1777778 10.1944444,10.4611111 C10.4777778,10.7388889 10.9277778,10.7388889 11.2111111,10.4555556 L15.7888889,5.84444444 C15.85,5.77777778 15.9,5.70555556 15.9388889,5.61666667 C15.9777778,5.52777778 15.9944444,5.43333333 15.9944444,5.33888889 C15.9944444,5.15 15.9222222,4.97222222 15.7888889,4.83333333 L11.2111111,0.222222222 C10.9388889,-0.0666666667 10.4833333,-0.0722222222 10.2,0.205555556 Z" id="Path"></path>
        </g>
    </g>
</svg>