<?xml version="1.0" encoding="UTF-8"?>
<svg width="15px" height="13px" viewBox="0 0 15 13" version="1.1" xmlns="http://www.w3.org/2000/svg" xmlns:xlink="http://www.w3.org/1999/xlink">
    <!-- Generator: Sketch 52.6 (67491) - http://www.bohemiancoding.com/sketch -->
    <title>Untitled</title>
    <desc>Created with Sketch.</desc>
    <g id="Page-1" stroke="none" stroke-width="1" fill="none" fill-rule="evenodd">
        <g id="reply" transform="translate(0.000000, -1.000000)" stroke="#005ea5">
            <path d="M14.5389324,6.59596091 L14.5324863,6.5899305 C14.5297362,6.59605618 14.5276709,6.60237218 14.5264502,6.60825157 C14.5256021,6.58700077 14.5288906,6.58711132 14.5389324,6.59596091 Z M14.5279094,6.5856488 L9.27227049,1.66896026 L9.27227049,3.89062763 C9.27227049,4.21840712 9.02664205,4.49710094 8.70741037,4.54498315 C4.4599458,5.19587758 1.91494054,7.91530456 0.793597913,12.1344379 C2.90543666,9.88799156 5.34369838,8.77154952 8.60824005,8.74504997 C8.98833647,8.74504997 9.27227049,9.08393896 9.27227049,9.43251333 L9.27227049,11.5527558 L14.5279094,6.5856488 Z M14.5264502,6.60825157 C14.5255281,6.61269308 14.5250879,6.61688542 14.5251987,6.6205583 C14.524822,6.60850257 14.524217,6.59970472 14.5247817,6.594525 Z M8.55635403,3.5564605 C8.55673692,3.55640179 8.55711983,3.55634309 8.55750275,3.55628441 C8.55711939,3.55634192 8.55673627,3.55640004 8.55635338,3.55645877 Z" id="Path"></path>
        </g>
    </g>
</svg>
