<?xml version="1.0" encoding="UTF-8"?>
<svg width="21px" height="16px" viewBox="0 0 21 16" version="1.1" xmlns="http://www.w3.org/2000/svg" xmlns:xlink="http://www.w3.org/1999/xlink">
    <!-- Generator: Sketch 52.6 (67491) - http://www.bohemiancoding.com/sketch -->
    <title>Untitled</title>
    <desc>Created with Sketch.</desc>
    <g id="Page-1" stroke="none" stroke-width="1" fill="none" fill-rule="evenodd">
        <g id="status" fill="#000000" fill-rule="nonzero">
            <path d="M3.71538462,14.6 L1.65576923,14.6 C1.54471154,14.6 1.45384615,14.51 1.45384615,14.4 L1.45384615,1.6 C1.45384615,1.49 1.54471154,1.4 1.65576923,1.4 L3.70024038,1.4 C4.09903846,1.4 4.43221154,1.08 4.44230769,0.7 C4.44735577,0.505 4.37668269,0.34 4.23533654,0.2 C4.09903846,0.06 3.83149038,0 3.63461538,0 L0.908653846,0 C0.403846154,0 0,0.3 0,0.8 L0,15.2 C0,15.7 0.353365385,16 0.858173077,16 L3.70024038,16 C4.09903846,16 4.43221154,15.74 4.44230769,15.36 C4.44735577,15.165 4.37668269,14.985 4.23533654,14.845 C4.09903846,14.705 3.91225962,14.6 3.71538462,14.6 Z M20.1418269,0 L17.2997596,0 C16.8201923,0 16.4365385,0.415 16.5930288,0.915 C16.603125,0.95 16.6182692,0.98 16.6334135,1.01 C16.7697115,1.27 17.0170673,1.4 17.2846154,1.4 L19.3442308,1.4 C19.4552885,1.4 19.5461538,1.49 19.5461538,1.6 L19.5461538,14.395 C19.5461538,14.505 19.4552885,14.595 19.3442308,14.595 L17.2997596,14.595 C16.9009615,14.595 16.5677885,14.905 16.5576923,15.29 C16.5526442,15.485 16.6233173,15.67 16.7646635,15.81 C16.9009615,15.95 17.0877404,16 17.2846154,16 L20.1418269,16 C20.6466346,16 21,15.7 21,15.18 L21,0.8 C21,0.3 20.6466346,0 20.1418269,0 Z" id="Shape"></path>
            <path d="M3.76081731,4 C3.37211538,4 3.05408654,4.315 3.05408654,4.695 L3.05408654,11.3 C3.05408654,11.685 3.37211538,11.995 3.76081731,11.995 C4.14951923,11.995 4.46754808,11.68 4.46754808,11.3 L4.46754808,4.695 C4.46754808,4.315 4.14951923,4 3.76081731,4 Z M17.2391827,12 C17.6278846,12 17.9459135,11.685 17.9459135,11.305 L17.9459135,4.695 C17.9459135,4.31 17.6278846,4 17.2391827,4 C16.8504808,4 16.5324519,4.315 16.5324519,4.695 L16.5324519,11.3 C16.5324519,11.685 16.8504808,12 17.2391827,12 Z M14.0588942,2.4 C13.6701923,2.4 13.3521635,2.725 13.3521635,3.12 L13.3521635,12.875 C13.3521635,13.275 13.6701923,13.595 14.0588942,13.595 C14.4475962,13.595 14.765625,13.27 14.765625,12.875 L14.765625,3.12 C14.765625,2.725 14.4475962,2.4 14.0588942,2.4 Z M6.94110577,2.4 C6.55240385,2.4 6.234375,2.725 6.234375,3.12 L6.234375,12.875 C6.234375,13.275 6.55240385,13.595 6.94110577,13.595 C7.32980769,13.595 7.64783654,13.27 7.64783654,12.875 L7.64783654,3.12 C7.64783654,2.725 7.33485577,2.4 6.94110577,2.4 Z M10.5,3.2 C10.1112981,3.2 9.79326923,3.52 9.79326923,3.91 L9.79326923,12.085 C9.79326923,12.475 10.1112981,12.795 10.5,12.795 C10.8887019,12.795 11.2067308,12.475 11.2067308,12.085 L11.2067308,3.91 C11.2067308,3.52 10.8887019,3.2 10.5,3.2 Z" id="Shape"></path>
        </g>
    </g>
</svg>