<?xml version="1.0" encoding="UTF-8"?>
<svg width="24px" height="20px" viewBox="0 0 24 20" version="1.1" xmlns="http://www.w3.org/2000/svg" xmlns:xlink="http://www.w3.org/1999/xlink">
    <g stroke="none" stroke-width="1" fill="none" fill-rule="evenodd">
        <g fill="#000000" fill-rule="nonzero">
            <polygon transform="translate(11.999934, 9.600354) rotate(-45.000000) translate(-11.999934, -9.600354) " points="11.2221836 -3.19839645 12.7776836 -3.19839645 12.7776836 22.3991036 11.2221836 22.3991036"></polygon>
            <path d="M12.167,6.4045 L15.1955,9.433 C15.1083688,7.79785547 13.8021445,6.49163118 12.167,6.4045 Z"></path>
            <path d="M11.833,12.7955 L8.8045,9.767 C8.89163118,11.4021445 10.1978555,12.7083688 11.833,12.7955 Z"></path>
            <path d="M12,14.4 C10.5031959,14.4000737 9.09203497,13.7018943 8.18397367,12.5120006 C7.27591237,11.3221068 6.97490609,9.77671853 7.37,8.333 L3.9165,4.879 C2.506,6.171 1.162,7.857 0,9.6 C1.321,11.8 3.128,14.062 5.01,15.359 C7.169,16.846 9.5165,17.6000028 11.988,17.6000028 C13.3386389,17.6009362 14.679195,17.3674724 15.95,16.91 L13.2695,14.23 C12.8558471,14.3432193 12.4288673,14.4003966 12,14.4 Z"></path>
            <path d="M12,4.8 C13.4968041,4.79992628 14.907965,5.49810572 15.8160263,6.68799944 C16.7240876,7.87789316 17.0250939,9.42328147 16.63,10.867 L20.163,14.4 C21.6205,13.0875 22.9665,11.322 24,9.6 C22.681,7.4285 20.855,5.172 18.941,3.859 C16.755,2.36 14.4155,1.6 11.988,1.6 C10.6522166,1.60191691 9.32765464,1.84393188 8.0775,2.3145 L10.733,4.97 C11.1458456,4.85700225 11.5719697,4.79982696 12,4.8 Z"></path>
        </g>
    </g>
</svg>
