<?xml version="1.0" encoding="UTF-8"?>
<svg width="20px" height="20px" viewBox="0 0 20 20" version="1.1" xmlns="http://www.w3.org/2000/svg" xmlns:xlink="http://www.w3.org/1999/xlink">
    <!-- Generator: Sketch 52.6 (67491) - http://www.bohemiancoding.com/sketch -->
    <title>Untitled</title>
    <desc>Created with Sketch.</desc>
    <g id="Page-1" stroke="none" stroke-width="1" fill="none" fill-rule="evenodd">
        <g id="globe" fill="#000000" fill-rule="nonzero">
            <path d="M10,0 C4.47716146,0 0,4.47716146 0,10 C0,15.5228385 4.47716146,20 10,20 C10.6758594,20 11.3360156,19.9327604 11.9742708,19.8049479 C11.7170052,19.681901 11.6889323,18.75875 11.9433333,18.2324219 C12.2265365,17.6464844 13.1152083,16.1621094 12.2363021,15.6640625 C11.3573958,15.1660156 11.6015365,14.9414062 11.0644271,14.3652344 C10.5273177,13.7890625 10.7469792,13.7024479 10.7128646,13.5546875 C10.5956771,13.046875 11.2304427,12.2851562 11.2597396,12.2070312 C11.2890365,12.1289062 11.2890365,11.8359375 11.2792708,11.7480469 C11.2695052,11.6601562 10.8789062,11.4257812 10.78125,11.4160156 C10.6835938,11.40625 10.6347656,11.5722656 10.4980469,11.5820312 C10.3613281,11.5917969 9.765625,11.2207031 9.63867188,11.1230469 C9.51171875,11.0253906 9.453125,10.7910156 9.27734375,10.6152344 C9.1015625,10.4394531 9.08203125,10.5761719 8.80859375,10.46875 C8.53515625,10.3613281 7.65625,10.0390625 6.98242188,9.765625 C6.30859375,9.4921875 6.25,9.10888021 6.24023438,8.83789062 C6.23046875,8.56690104 5.83007812,8.17382812 5.64229167,7.890625 C5.45455729,7.60742188 5.41992188,7.21679688 5.3515625,7.3046875 C5.28320312,7.39257812 5.703125,8.41796875 5.63476562,8.44726562 C5.56640625,8.4765625 5.41992188,8.1640625 5.22460938,7.91015625 C5.02929688,7.65625 5.4296875,7.79296875 4.8046875,6.5625 C4.1796875,5.33203125 5,4.70458333 5.0390625,4.0625 C5.078125,3.42041667 5.56640625,4.296875 5.3125,3.88671875 C5.05859375,3.4765625 5.33203125,2.6171875 5.13671875,2.3046875 C4.94140625,1.9921875 3.828125,2.65625 3.828125,2.65625 C3.85742188,2.35351562 4.8046875,1.8359375 5.48828125,1.35742188 C6.171875,0.87890625 6.58934896,1.25 7.13867188,1.42578125 C7.68799479,1.6015625 7.72460938,1.54296875 7.5390625,1.3671875 C7.35351562,1.19140625 7.6171875,1.10351562 8.046875,1.171875 C8.4765625,1.24023438 8.59375,1.7578125 9.24804688,1.70898438 C9.90234375,1.66015625 9.31640625,1.8359375 9.40429688,2.00195312 C9.4921875,2.16796875 9.30664062,2.1484375 8.87695312,2.44140625 C8.44726562,2.734375 8.88671875,2.734375 9.6484375,3.29101562 C10.4101562,3.84765625 10.1757812,2.91992188 10.0976562,2.50976562 C10.0195312,2.09960938 10.6542969,2.421875 10.6542969,2.421875 C11.1230469,2.734375 11.0364323,2.4390625 11.3782292,2.54648437 C11.720026,2.65390625 12.6464844,3.4375 12.6464844,3.4375 C11.484375,4.07226562 12.2167969,4.140625 12.4121094,4.28710938 C12.6074219,4.43359375 12.0117188,4.71679688 12.0117188,4.71679688 C11.7675781,4.47265625 11.7285156,4.7265625 11.5722656,4.81445312 C11.4160156,4.90234375 11.5625,5.12695312 11.5625,5.12695312 C10.754401,5.25390625 10.9375,6.10351562 10.9472656,6.30859375 C10.9570312,6.51367188 10.4296875,6.82617188 10.2929688,7.11914062 C10.15625,7.41210938 10.6445312,8.046875 10.390625,8.0859375 C10.1367188,8.125 9.8828125,7.12890625 8.515625,7.5 C8.1034375,7.61190104 7.1875,8.0859375 7.67578125,9.05273438 C8.1640625,10.0195312 8.97460938,8.77929688 9.24804688,8.91601562 C9.52148438,9.05273438 9.16992188,9.66796875 9.22851562,9.67773438 C9.28710938,9.6875 10,9.70458333 10.0390625,10.5371094 C10.078125,11.3696354 11.1230469,11.2988281 11.3476562,11.3183594 C11.5722656,11.3378906 12.3242188,10.703125 12.4316406,10.6738281 C12.5390625,10.6445312 12.96875,10.2832031 13.90625,10.8203125 C14.84375,11.3574219 15.3222656,11.2792969 15.6445312,11.5039062 C15.9667969,11.7285156 15.7421875,12.1777344 16.0449219,12.3242188 C16.3476562,12.4707031 17.5585938,12.2753906 17.8613281,12.7734375 C18.1640625,13.2714844 16.6113281,15.7714844 16.1230469,16.0449219 C15.6347656,16.3183594 15.4101562,16.9433594 14.921875,17.34375 C14.4335938,17.7441406 13.75,18.2397396 13.1054688,18.6230469 C12.5349479,18.9622917 12.4322917,19.5700521 12.178151,19.761901 C16.6535417,18.7677083 20,14.7747396 20,10 C20,4.47716146 15.5228385,0 10,0 Z M12.34375,9.38476562 C12.2070312,9.42382812 11.9238281,9.67773438 11.2304688,9.26757812 C10.5371094,8.85742188 10.0585938,8.93554688 10,8.8671875 C10,8.8671875 9.94140625,8.70117188 10.2441406,8.671875 C10.8657812,8.61169271 11.6503906,9.24804688 11.8261719,9.2578125 C12.0019531,9.26757812 12.0898438,9.08203125 12.4023438,9.18273438 C12.7148438,9.28333333 12.4804688,9.34570312 12.34375,9.38476562 Z M9.07226562,0.99609375 C9.00416667,0.9465625 9.12867188,0.88953125 9.20289063,0.791015625 C9.24572917,0.734088542 9.21395833,0.639583333 9.26757812,0.5859375 C9.4140625,0.439453125 10.1367188,0.234375 9.99541667,0.634765625 C9.85416667,1.03515625 9.1796875,1.07421875 9.07226562,0.99609375 Z M10.8203125,2.265625 C10.5761719,2.25585938 10.0014844,2.19513021 10.1074219,2.08984375 C10.520026,1.6796875 9.95117188,1.5625 9.59960938,1.53320312 C9.24804688,1.50390625 9.1015625,1.30859375 9.27734375,1.2890625 C9.453125,1.26953125 10.15625,1.29882813 10.2734375,1.39648438 C10.390625,1.49414062 11.0253906,1.74804688 11.0644531,1.93359375 C11.1035156,2.11914062 11.0644531,2.27539062 10.8203125,2.265625 Z M12.9394531,2.19726562 C12.7441406,2.35351562 11.7613281,1.63661458 11.5722656,1.47460938 C10.7519531,0.771484375 10.3125,1.00585938 10.1402344,0.888671875 C9.96791667,0.771484375 10.0292969,0.615234375 10.2929688,0.380859375 C10.5566406,0.146484375 11.2988281,0.458984375 11.7285156,0.5078125 C12.1582031,0.556640625 12.65625,0.888671875 12.6660156,1.28335938 C12.6757812,1.67802083 13.1347656,2.04101562 12.9394531,2.19726562 Z" id="Shape"></path>
        </g>
    </g>
</svg>