<?xml version="1.0" encoding="UTF-8"?>
<svg width="15px" height="15px" viewBox="0 0 15 15" version="1.1" xmlns="http://www.w3.org/2000/svg" xmlns:xlink="http://www.w3.org/1999/xlink">
    <g stroke="none" stroke-width="1" fill="none" fill-rule="evenodd">
        <path d="M0.5,0.5 L0.5,2.5 L14.5,2.5 L14.5,0.5 L0.5,0.5 Z M0.5,0.5 L14.5,0.5 L14.5,2.5 L0.5,2.5 L0.5,0.5 Z" stroke="#000000"></path>
        <path d="M0.5,4.5 L0.5,6.5 L14.5,6.5 L14.5,4.5 L0.5,4.5 Z M0.5,4.5 L14.5,4.5 L14.5,6.5 L0.5,6.5 L0.5,4.5 Z" stroke="#000000"></path>
        <path d="M0.5,8.5 L0.5,10.5 L14.5,10.5 L14.5,8.5 L0.5,8.5 Z M0.5,8.5 L14.5,8.5 L14.5,10.5 L0.5,10.5 L0.5,8.5 Z" stroke="#000000"></path>
        <path d="M0.5,12.5 L0.5,14.5 L14.5,14.5 L14.5,12.5 L0.5,12.5 Z M0.5,12.5 L14.5,12.5 L14.5,14.5 L0.5,14.5 L0.5,12.5 Z" stroke="#000000"></path>
    </g>
</svg>