<?xml version="1.0" encoding="UTF-8"?>
<svg width="15px" height="15px" viewBox="0 0 15 15" version="1.1" xmlns="http://www.w3.org/2000/svg" xmlns:xlink="http://www.w3.org/1999/xlink">
    <g stroke="none" stroke-width="1" fill="none" fill-rule="evenodd">
        <rect fill="#000000" x="5" y="2" width="10" height="1"></rect>
        <rect fill="#000000" x="5" y="7" width="10" height="1"></rect>
        <rect fill="#000000" x="5" y="12" width="10" height="1"></rect>
        <path d="M0,6 L3,6 L3,9 L0,9 L0,6 Z M1,7 L1,8 L2,8 L2,7 L1,7 Z" fill="#000000"></path>
        <path d="M0,11 L3,11 L3,14 L0,14 L0,11 Z M1,12 L1,13 L2,13 L2,12 L1,12 Z" fill="#000000"></path>
        <path d="M0,1 L3,1 L3,4 L0,4 L0,1 Z M1,2 L1,3 L2,3 L2,2 L1,2 Z" fill="#000000"></path>
    </g>
</svg>