<?xml version="1.0" encoding="UTF-8"?>
<svg width="26px" height="26px" viewBox="0 0 26 26" version="1.1" xmlns="http://www.w3.org/2000/svg" xmlns:xlink="http://www.w3.org/1999/xlink">
    <!-- Generator: Sketch 52.6 (67491) - http://www.bohemiancoding.com/sketch -->
    <title>Untitled</title>
    <desc>Created with Sketch.</desc>
    <g id="Page-1" stroke="none" stroke-width="1" fill="none" fill-rule="evenodd">
        <path d="M20,8.5 C18.6192881,8.5 17.5,7.38071187 17.5,6 C17.5,4.61928813 18.6192881,3.5 20,3.5 C21.3807119,3.5 22.5,4.61928813 22.5,6 C22.5,7.38071187 21.3807119,8.5 20,8.5 Z M13,8.5 C11.6192881,8.5 10.5,7.38071187 10.5,6 C10.5,4.61928813 11.6192881,3.5 13,3.5 C14.3807119,3.5 15.5,4.61928813 15.5,6 C15.5,7.38071187 14.3807119,8.5 13,8.5 Z M6,8.5 C4.61928813,8.5 3.5,7.38071187 3.5,6 C3.5,4.61928813 4.61928813,3.5 6,3.5 C7.38071187,3.5 8.5,4.61928813 8.5,6 C8.5,7.38071187 7.38071187,8.5 6,8.5 Z M20,15.5 C18.6192881,15.5 17.5,14.3807119 17.5,13 C17.5,11.6192881 18.6192881,10.5 20,10.5 C21.3807119,10.5 22.5,11.6192881 22.5,13 C22.5,14.3807119 21.3807119,15.5 20,15.5 Z M13,15.5 C11.6192881,15.5 10.5,14.3807119 10.5,13 C10.5,11.6192881 11.6192881,10.5 13,10.5 C14.3807119,10.5 15.5,11.6192881 15.5,13 C15.5,14.3807119 14.3807119,15.5 13,15.5 Z M6,15.5 C4.61928813,15.5 3.5,14.3807119 3.5,13 C3.5,11.6192881 4.61928813,10.5 6,10.5 C7.38071187,10.5 8.5,11.6192881 8.5,13 C8.5,14.3807119 7.38071187,15.5 6,15.5 Z M20,22.5 C18.6192881,22.5 17.5,21.3807119 17.5,20 C17.5,18.6192881 18.6192881,17.5 20,17.5 C21.3807119,17.5 22.5,18.6192881 22.5,20 C22.5,21.3807119 21.3807119,22.5 20,22.5 Z M13,22.5 C11.6192881,22.5 10.5,21.3807119 10.5,20 C10.5,18.6192881 11.6192881,17.5 13,17.5 C14.3807119,17.5 15.5,18.6192881 15.5,20 C15.5,21.3807119 14.3807119,22.5 13,22.5 Z M6,22.5 C4.61928813,22.5 3.5,21.3807119 3.5,20 C3.5,18.6192881 4.61928813,17.5 6,17.5 C7.38071187,17.5 8.5,18.6192881 8.5,20 C8.5,21.3807119 7.38071187,22.5 6,22.5 Z" id="Combined-Shape" stroke="#000000" fill="#FFFFFF"></path>
    </g>
</svg>