<?xml version="1.0" encoding="UTF-8"?>
<svg width="34px" height="32px" viewBox="0 0 34 32" version="1.1" xmlns="http://www.w3.org/2000/svg" xmlns:xlink="http://www.w3.org/1999/xlink">
    <g fill-rule="evenodd">
        <path d="M25.2572728,22.3245918 L33.1528811,29.6873656 L31.106886,31.8814267 L23.2248217,24.5312829 C20.7613151,26.69092 17.5335336,28 14,28 C6.2680135,28 0,21.7319865 0,14 C0,6.2680135 6.2680135,0 14,0 C21.7319865,0 28,6.2680135 28,14 C28,17.1179269 26.9807526,19.9977958 25.2572728,22.3245918 Z M14,25 C20.0751322,25 25,20.0751322 25,14 C25,7.92486775 20.0751322,3 14,3 C7.92486775,3 3,7.92486775 3,14 C3,20.0751322 7.92486775,25 14,25 Z" fill="#000000" fill-rule="nonzero"></path>
    </g>
</svg>
