<?xml version="1.0" encoding="UTF-8"?>
<svg width="200px" height="200px" viewBox="0 0 200 200" version="1.1" xmlns="http://www.w3.org/2000/svg" xmlns:xlink="http://www.w3.org/1999/xlink">
    <!-- Generator: Sketch 52.6 (67491) - http://www.bohemiancoding.com/sketch -->
    <title>Untitled</title>
    <desc>Created with Sketch.</desc>
    <g id="Page-1" stroke="none" stroke-width="1" fill="none" fill-rule="evenodd" stroke-opacity="0.531872736">
        <path d="M76.1047086,163.054459 C76.0625712,163.106231 76.0580462,163.113506 76.0677813,163.086205 C76.1137609,162.957259 76.1645186,162.764367 76.2142157,162.517351 C76.323971,161.971818 76.4165783,161.225796 76.4882341,160.308368 C76.6208316,158.610686 76.6777105,156.396224 76.6690007,153.797734 C76.6614671,151.550181 76.6058386,149.137876 76.5177802,146.714777 C76.4844787,145.798421 76.4488046,144.944834 76.4131519,144.177083 C76.4054553,144.011341 76.398384,143.862745 76.3920507,143.732373 C76.1857468,143.400488 75.9573878,143.025902 75.7123119,142.61488 C74.9939812,141.410154 74.2756867,140.134828 73.6032373,138.841675 C73.0843314,137.843794 72.6131063,136.873532 72.2004539,135.94241 C71.9836167,135.453132 71.7840649,134.977083 71.6054456,134.521543 C71.4465204,134.120231 71.2872396,133.665271 71.1262401,133.156931 C70.6168093,131.548453 70.0878771,129.400507 69.5457246,126.831532 C69.1287991,124.855942 68.7277459,122.744339 68.3565344,120.633442 C68.261775,120.094592 68.1739158,119.583736 68.0936613,119.107605 C67.3020587,118.783306 66.5325277,118.268882 65.8317191,117.537555 C64.5541248,116.204327 63.6248662,114.273614 63.124463,111.6999 C62.8409212,110.263804 62.5084014,108.949873 62.0905817,107.547956 C62.0063722,107.265407 60.7691223,103.409718 60.4898143,102.316268 C60.008064,100.430289 59.8112933,98.7351679 59.9098209,96.8137694 C60.0432389,94.2564237 60.7784051,92.4181219 62.0309729,91.2743335 C62.1665803,91.150503 62.3037487,91.0380065 62.4417766,90.9361592 C62.1324873,89.7409826 61.7858286,88.1550963 61.4425639,86.1742927 C60.6590223,81.6528775 60.1367517,76.3016995 59.9935159,70.1062823 C59.541775,49.4754368 75.8947037,33 100.53349,33 C124.933987,33 141.479781,49.5876308 141.030567,70.1029515 C140.9038,76.3692865 140.368545,81.7722936 139.552781,86.3243536 C139.209497,88.2399212 138.862716,89.7790625 138.552119,90.9456723 C138.685811,91.045 138.818675,91.154346 138.950074,91.2743335 C140.202642,92.4181219 140.937808,94.2564237 141.071318,96.8155459 C141.169754,98.7351679 140.972983,100.430289 140.491233,102.316268 C140.211925,103.409718 138.974675,107.265407 138.890465,107.547956 C138.472646,108.949873 138.140126,110.263804 137.855103,111.707326 C137.343999,114.24539 136.42931,116.152903 135.184092,117.481221 C134.474444,118.238229 133.692999,118.769805 132.888125,119.103217 C132.807671,119.580597 132.719563,120.092936 132.624513,120.633442 C132.253301,122.744339 131.852248,124.855942 131.435323,126.831532 C130.89317,129.400507 130.364238,131.548453 129.854807,133.156931 C129.693808,133.665271 129.534527,134.120231 129.378066,134.51529 C129.196982,134.977083 128.99743,135.453132 128.780593,135.94241 C128.367941,136.873532 127.896716,137.843794 127.37781,138.841675 C126.70536,140.134828 125.987066,141.410154 125.268735,142.61488 C125.023659,143.025902 124.7953,143.400488 124.588996,143.732373 C124.582663,143.862745 124.575592,144.011341 124.567895,144.177083 C124.532243,144.944834 124.496568,145.798421 124.463267,146.714777 C124.375208,149.137876 124.31958,151.550181 124.312046,153.797734 C124.303337,156.396224 124.360216,158.610686 124.492813,160.308368 C124.564469,161.225796 124.657076,161.971818 124.766831,162.517351 C124.816529,162.764367 124.867286,162.957259 124.913266,163.086205 C124.922718,163.112714 124.918727,163.106624 124.879913,163.058855 C126.062893,164.439156 130.330838,166.283985 134.097011,167.110776 C135.700008,167.469512 137.511112,167.773736 140.49087,168.210025 C140.955847,168.278106 142.779172,168.542079 143.219147,168.606412 C144.308498,168.765696 145.183999,168.897587 146.030064,169.031315 C150.553283,169.746251 153.869784,170.471572 156.70978,171.472918 C162.274604,173.432491 167.021384,175.544797 171.69545,178.603893 C178.644501,183.151928 183.331148,188.682418 184.849839,195.390407 L184.852501,195.402334 C185.599209,198.796682 183.018927,202 179.547863,202 L21.4761502,202 C17.9731913,202 15.3794574,198.807504 16.1312077,195.390407 C17.6498987,188.682418 22.3365463,183.151928 29.2855973,178.603893 C33.9596628,175.544797 38.7064435,173.432491 44.27051,171.473185 C47.1112633,170.471572 50.4277639,169.746251 54.9509829,169.031315 C55.7970477,168.897587 56.6725489,168.765696 57.7618998,168.606412 C58.2018752,168.542079 60.0252003,168.278106 60.4901774,168.210025 C63.4699354,167.773736 65.2810394,167.469512 66.8919725,167.109017 C70.6593765,166.281972 74.9388718,164.430196 76.1268348,163.027277 Z" id="Path" stroke="#000000" stroke-width="4" fill="#FFFFFF"></path>
    </g>
</svg>