<?xml version="1.0" encoding="UTF-8"?>
<svg width="24px" height="24px" viewBox="0 0 24 24" version="1.1" xmlns="http://www.w3.org/2000/svg" xmlns:xlink="http://www.w3.org/1999/xlink">
    <g id="Page-1" stroke="none" stroke-width="1" fill="none" fill-rule="evenodd">
        <circle id="Oval" fill-opacity="0.4" fill="#000000" cx="12" cy="12" r="12"></circle>
        <path d="M9.11368325,19.3910602 C9.10869602,19.3971871 9.10816045,19.398048 9.10931267,19.3948172 C9.11475465,19.3795573 9.12076215,19.3567298 9.12664412,19.3274972 C9.13963438,19.262937 9.15059505,19.1746504 9.15907598,19.0660791 C9.17476975,18.8651699 9.18150174,18.6031034 9.18047087,18.2955898 C9.17957922,18.0296072 9.17299523,17.7441273 9.16257295,17.4573701 C9.1586315,17.3489256 9.15440924,17.2479093 9.15018951,17.1570512 C9.14927857,17.1374368 9.14844164,17.1198515 9.14769205,17.1044228 C9.12327465,17.0651465 9.09624688,17.0208168 9.06724056,16.9721751 C8.98222147,16.829604 8.89720667,16.6786779 8.81761793,16.525642 C8.75620205,16.4075496 8.70042951,16.2927257 8.65158943,16.1825337 C8.62592534,16.124631 8.6023071,16.0682938 8.58116635,16.0143838 C8.56235652,15.9668912 8.54350461,15.9130498 8.52444927,15.8528912 C8.46415484,15.6625388 8.40155229,15.408344 8.33738503,15.1043233 C8.2880392,14.8705257 8.24057196,14.6206318 8.19663667,14.3708215 C8.18542128,14.3070523 8.17502258,14.246596 8.16552394,14.1902491 C8.07183265,14.1518705 7.98075367,14.090992 7.89780843,14.0044444 C7.74659688,13.8466659 7.63661311,13.6181792 7.57738715,13.3135976 C7.54382814,13.1436454 7.50447227,12.9881507 7.4550206,12.8222433 C7.44505386,12.7888056 7.29861733,12.332511 7.26555942,12.2031086 C7.20854115,11.9799159 7.18525206,11.7793098 7.19691344,11.5519254 C7.21270433,11.2492809 7.29971601,11.0317304 7.44796552,10.8963708 C7.46401553,10.8817163 7.4802503,10.8684031 7.49658679,10.8563502 C7.4599804,10.7149092 7.4189511,10.5272303 7.3783235,10.2928157 C7.28558628,9.75773698 7.22377217,9.12446148 7.20681929,8.39127601 C7.15335283,5.94975583 9.08882781,4 12.0049877,4 C14.8929445,4 16.8512463,5.96303323 16.7980789,8.39088183 C16.7830752,9.13245994 16.7197243,9.77186907 16.6231734,10.3105744 C16.5825435,10.5372688 16.5414997,10.7194157 16.5047386,10.857476 C16.5205619,10.8692308 16.5362872,10.8821711 16.5518391,10.8963708 C16.7000886,11.0317304 16.7871003,11.2492809 16.8029021,11.5521356 C16.8145526,11.7793098 16.7912635,11.9799159 16.7342453,12.2031086 C16.7011873,12.332511 16.5547508,12.7888056 16.544784,12.8222433 C16.4953324,12.9881507 16.4559765,13.1436454 16.4222422,13.3144764 C16.3617497,13.6148391 16.2534904,13.8405802 16.1061108,13.9977776 C16.0221193,14.0873644 15.9296303,14.1502728 15.8343682,14.1897298 C15.824846,14.2462245 15.8144178,14.3068563 15.803168,14.3708215 C15.7592327,14.6206318 15.7117655,14.8705257 15.6624197,15.1043233 C15.5982524,15.408344 15.5356498,15.6625388 15.4753554,15.8528912 C15.4563001,15.9130498 15.4374482,15.9668912 15.41893,16.0136438 C15.3974975,16.0682938 15.3738793,16.124631 15.3482152,16.1825337 C15.2993752,16.2927257 15.2436026,16.4075496 15.1821867,16.525642 C15.1025979,16.6786779 15.0175832,16.829604 14.9325641,16.9721751 C14.9035577,17.0208168 14.87653,17.0651465 14.8521126,17.1044228 C14.851363,17.1198515 14.8505261,17.1374368 14.8496151,17.1570512 C14.8453955,17.2479093 14.8411731,17.3489256 14.8372317,17.4573701 C14.8268094,17.7441273 14.8202254,18.0296072 14.8193337,18.2955898 C14.818303,18.6031034 14.825035,18.8651699 14.8407287,19.0660791 C14.8492096,19.1746504 14.8601703,19.262937 14.8731605,19.3274972 C14.8790426,19.3567298 14.88505,19.3795573 14.890492,19.3948172 C14.8916107,19.3979543 14.8911384,19.3972336 14.8865445,19.3915805 C15.0265578,19.5549297 15.5316967,19.7732527 15.9774477,19.8710978 C16.1671728,19.9135517 16.3815286,19.9495546 16.7342023,20.0011864 C16.7892353,20.0092433 17.0050377,20.0404827 17.0571115,20.0480961 C17.1860433,20.0669463 17.2896645,20.0825547 17.3898018,20.0983805 C17.925154,20.1829883 18.3176834,20.2688251 18.6538153,20.3873276 C19.3124482,20.6192297 19.8742604,20.8692067 20.4274664,21.2312299 C21.2499315,21.7694589 21.8046265,22.4239548 21.9843735,23.2177996 L21.9846885,23.2192111 C22.0730662,23.6209091 21.7676732,24 21.3568503,24 L2.64803969,24 C2.23344183,24 1.92645663,23.6221898 2.01543115,23.2177996 C2.19517806,22.4239548 2.74987314,21.7694589 3.57233832,21.2312299 C4.12554423,20.8692067 4.68735646,20.6192297 5.34589975,20.3873592 C5.68212129,20.2688251 6.07465061,20.1829883 6.61000286,20.0983805 C6.71014011,20.0825547 6.81376134,20.0669463 6.94269308,20.0480961 C6.99476701,20.0404827 7.21056934,20.0092433 7.26560239,20.0011864 C7.61827604,19.9495546 7.83263193,19.9135517 8.02329629,19.8708896 C8.46919294,19.7730144 8.97569892,19.5538693 9.11630203,19.3878434 L9.11368325,19.3910602 Z" id="Path" fill="#000000"></path>
    </g>
</svg>
