<?xml version="1.0" encoding="UTF-8"?>
<svg width="16px" height="16px" viewBox="0 0 20 20" version="1.1" xmlns="http://www.w3.org/2000/svg" xmlns:xlink="http://www.w3.org/1999/xlink">
    <g stroke="none" stroke-width="1" fill="none" fill-rule="evenodd">
        <path d="M2.77158911,12.9914347 C1.22144304,12.8747331 0,11.5800082 0,10 C0,8.41999179 1.22144304,7.12526688 2.77158911,7.00856529 C2.291975,6.47679519 2,5.7724948 2,5 C2,3.34314575 3.34314575,2 5,2 C5.7724948,2 6.47679519,2.291975 7.00856529,2.77158911 C7.12526688,1.22144304 8.41999179,0 10,0 C11.5800082,0 12.8747331,1.22144304 12.9914347,2.77158911 C13.5232048,2.291975 14.2275052,2 15,2 C16.6568542,2 18,3.34314575 18,5 C18,5.7724948 17.708025,6.47679519 17.2284109,7.00856529 C18.778557,7.12526688 20,8.41999179 20,10 C20,11.5800082 18.778557,12.8747331 17.2284109,12.9914347 C17.708025,13.5232048 18,14.2275052 18,15 C18,16.6568542 16.6568542,18 15,18 C14.2275052,18 13.5232048,17.708025 12.9914347,17.2284109 C12.8747331,18.778557 11.5800082,20 10,20 C8.41999179,20 7.12526688,18.778557 7.00856529,17.2284109 C6.47679519,17.708025 5.7724948,18 5,18 C3.34314575,18 2,16.6568542 2,15 C2,14.2275052 2.291975,13.5232048 2.77158911,12.9914347 Z M13.1481481,6 L8.51851852,10.4444444 L6.85185185,8.84444444 L5,10.6222222 L8.51851852,14 L15,7.77777778 L13.1481481,6 Z" fill="#000000"></path>
    </g>
</svg>
