<?xml version="1.0" encoding="UTF-8"?>
<svg width="38px" height="32px" viewBox="0 0 38 32" version="1.1" xmlns="http://www.w3.org/2000/svg" xmlns:xlink="http://www.w3.org/1999/xlink">
    <g id="Page-1" stroke="none" stroke-width="1" fill="none" fill-rule="evenodd">
        <g id="businesses" fill="#000000">
            <path d="M35.4361148,32 L2.5638852,32 L0,32 L0,29.4361148 L0,14 L18,14 L18,18 C18,18.5522847 18.4477153,19 19,19 C19.5522847,19 20,18.5522847 20,18 L20,14 L38,14 L38,29.4361148 L38,32 L35.4361148,32 Z" id="Combined-Shape"></path>
            <path d="M0,15 L0,5 L12,5 L12,3.5638852 C12,2.60010387 12.0991552,2.08663621 12.3853195,1.55155544 C12.6528264,1.05136104 13.051361,0.652826398 13.5515554,0.385319506 C14.0866362,0.0991551791 14.6001039,0 15.5638852,0 L22.4361148,0 C23.3998961,0 23.9133638,0.0991551791 24.4484446,0.385319506 C24.948639,0.652826398 25.3471736,1.05136104 25.6146805,1.55155544 C25.9008448,2.08663621 26,2.60010387 26,3.5638852 L26,5 L38,5 L38,14 L20,14 L20,13 C20,12.4477153 19.5522847,12 19,12 C18.4477153,12 18,12.4477153 18,13 L18,14 L0,14 L0,15 Z M14,5 L24,5 L24,3.5638852 C24,2.90203328 23.9610784,2.70048072 23.8510541,2.49475316 C23.7699468,2.3430957 23.6569043,2.2300532 23.5052468,2.1489459 C23.2995193,2.03892159 23.0979667,2 22.4361148,2 L15.5638852,2 C14.9020333,2 14.7004807,2.03892159 14.4947532,2.1489459 C14.3430957,2.2300532 14.2300532,2.3430957 14.1489459,2.49475316 C14.0389216,2.70048072 14,2.90203328 14,3.5638852 L14,5 Z" id="Combined-Shape" fill-opacity="0.5" fill-rule="nonzero"></path>
        </g>
    </g>
</svg>
