<?xml version="1.0" encoding="UTF-8"?>
<svg width="38px" height="32px" viewBox="0 0 38 32" version="1.1" xmlns="http://www.w3.org/2000/svg" xmlns:xlink="http://www.w3.org/1999/xlink">
    <!-- Generator: Sketch 52.6 (67491) - http://www.bohemiancoding.com/sketch -->
    <title>Untitled</title>
    <desc>Created with Sketch.</desc>
    <defs>
        <linearGradient x1="50%" y1="3.09113078%" x2="50%" y2="98.1450991%" id="linearGradient-1">
            <stop stop-color="#000000" stop-opacity="0.304291214" offset="0%"></stop>
            <stop stop-color="#000000" stop-opacity="0.246716486" offset="100%"></stop>
        </linearGradient>
    </defs>
    <g id="Page-1" stroke="none" stroke-width="1" fill="none" fill-rule="evenodd">
        <g id="businesses">
            <path d="M0,14 L38,14 L38,29.4361148 C38,30.3276335 37.9071744,30.6509198 37.7328673,30.9768457 C37.5585602,31.3027716 37.3027716,31.5585602 36.9768457,31.7328673 C36.6509198,31.9071744 36.3276335,32 35.4361148,32 L2.5638852,32 C1.67236646,32 1.34908022,31.9071744 1.0231543,31.7328673 C0.697228371,31.5585602 0.441439796,31.3027716 0.267132704,30.9768457 C0.0928256111,30.6509198 1.09179557e-16,30.3276335 0,29.4361148 L0,14 Z" id="Rectangle" fill-opacity="0.45" fill="#000000"></path>
            <path d="M12,5 L12,3.5638852 C12,2.60010387 12.0991552,2.08663621 12.3853195,1.55155544 C12.6528264,1.05136104 13.051361,0.652826398 13.5515554,0.385319506 C14.0866362,0.0991551791 14.6001039,0 15.5638852,0 L22.4361148,0 C23.3998961,0 23.9133638,0.0991551791 24.4484446,0.385319506 C24.948639,0.652826398 25.3471736,1.05136104 25.6146805,1.55155544 C25.9008448,2.08663621 26,2.60010387 26,3.5638852 L26,5 L35.4361148,5 C36.3276335,5 36.6509198,5.09282561 36.9768457,5.2671327 C37.3027716,5.4414398 37.5585602,5.69722837 37.7328673,6.0231543 C37.9071744,6.34908022 38,6.67236646 38,7.5638852 L38,14 L0,14 C0,14.6666667 0,15 0,15 C0,13.34753 0,10.8688251 0,7.5638852 C1.09179557e-16,6.67236646 0.0928256111,6.34908022 0.267132704,6.0231543 C0.441439796,5.69722837 0.697228371,5.4414398 1.0231543,5.2671327 C1.34908022,5.09282561 1.67236646,5 2.5638852,5 L12,5 Z M14,5 L24,5 L24,3.5638852 C24,2.90203328 23.9610784,2.70048072 23.8510541,2.49475316 C23.7699468,2.3430957 23.6569043,2.2300532 23.5052468,2.1489459 C23.2995193,2.03892159 23.0979667,2 22.4361148,2 L15.5638852,2 C14.9020333,2 14.7004807,2.03892159 14.4947532,2.1489459 C14.3430957,2.2300532 14.2300532,2.3430957 14.1489459,2.49475316 C14.0389216,2.70048072 14,2.90203328 14,3.5638852 L14,5 Z" id="Combined-Shape" fill="url(#linearGradient-1)" fill-rule="nonzero"></path>
            <path d="M19,12 C19.5522847,12 20,12.4477153 20,13 L20,18 C20,18.5522847 19.5522847,19 19,19 C18.4477153,19 18,18.5522847 18,18 L18,13 C18,12.4477153 18.4477153,12 19,12 Z" id="Rectangle" fill="#FFFFFF"></path>
        </g>
    </g>
</svg>