<?xml version="1.0" encoding="UTF-8"?>
<svg width="26px" height="35px" viewBox="0 0 26 35" version="1.1" xmlns="http://www.w3.org/2000/svg" xmlns:xlink="http://www.w3.org/1999/xlink">
    <!-- Generator: Sketch 52.6 (67491) - http://www.bohemiancoding.com/sketch -->
    <title>Untitled</title>
    <desc>Created with Sketch.</desc>
    <g id="Page-1" stroke="none" stroke-width="1" fill="none" fill-rule="evenodd">
        <path d="M0,0 L26,0 L26,35 L0,35 L0,0 Z M4,4 L4,7 L22,7 L22,4 L4,4 Z M4,10 L4,13 L19,13 L19,10 L4,10 Z M4,16 L4,19 L16,19 L16,16 L4,16 Z M4,22 L4,25 L13,25 L13,22 L4,22 Z M4,28 L4,31 L10,31 L10,28 L4,28 Z" id="Combined-Shape" fill="#000000"></path>
        <rect id="Rectangle" fill-opacity="0.2" fill="#000000" x="4" y="4" width="18" height="3"></rect>
        <rect id="Rectangle-Copy" fill-opacity="0.4" fill="#000000" x="4" y="10" width="15" height="3"></rect>
        <rect id="Rectangle-Copy-2" fill-opacity="0.6" fill="#000000" x="4" y="16" width="12" height="3"></rect>
        <rect id="Rectangle-Copy-3" fill-opacity="0.8" fill="#000000" x="4" y="22" width="9" height="3"></rect>
        <rect id="Rectangle-Copy-4" fill-opacity="0.9" fill="#000000" x="4" y="28" width="6" height="3"></rect>
    </g>
</svg>