<?xml version="1.0" encoding="UTF-8"?>
<svg width="60px" height="40px" viewBox="0 0 60 40" version="1.1" xmlns="http://www.w3.org/2000/svg" xmlns:xlink="http://www.w3.org/1999/xlink">
    <g stroke="none" stroke-width="1" fill="none" fill-rule="evenodd">
        <path d="M25.3818932,28.6256963 C25.3739136,28.6354994 25.3730567,28.6368768 25.3749003,28.6317075 C25.3836074,28.6072917 25.3932194,28.5707677 25.4026306,28.5239955 C25.423415,28.4206992 25.4409521,28.2794406 25.4545216,28.1057266 C25.4796316,27.7842718 25.4904028,27.3649654 25.4887534,26.8729437 C25.4873268,26.4473715 25.4767924,25.9906037 25.4601167,25.5317922 C25.4538104,25.358281 25.4470548,25.1966549 25.4403032,25.0512819 C25.4388457,25.0198989 25.4375066,24.9917624 25.4363073,24.9670765 C25.3972394,24.9042344 25.353995,24.8333069 25.3075849,24.7554802 C25.1715544,24.5273664 25.0355307,24.2858846 24.9081887,24.0410272 C24.8099233,23.8520794 24.7206872,23.6683611 24.6425431,23.4920539 C24.6014805,23.3994096 24.5636914,23.3092701 24.5298662,23.2230141 C24.4997704,23.1470259 24.4696074,23.0608797 24.4391188,22.9646259 C24.3426477,22.6600621 24.2424837,22.2533504 24.139816,21.7669173 C24.0608627,21.3928411 23.9849151,20.9930109 23.9146187,20.5933144 C23.896674,20.4912837 23.8800361,20.3945536 23.8648383,20.3043986 C23.7149322,20.2429928 23.5692059,20.1455872 23.4364935,20.007111 C23.194555,19.7546654 23.018581,19.3890867 22.9238194,18.9017562 C22.870125,18.6298326 22.8071556,18.3810411 22.728033,18.1155893 C22.7120862,18.062089 22.4777877,17.3320176 22.4248951,17.1249738 C22.3336658,16.7678654 22.2964033,16.4468957 22.3150615,16.0830806 C22.3403269,15.5988494 22.4795456,15.2507686 22.7167448,15.0341933 C22.7424248,15.0107461 22.7684005,14.989445 22.7945389,14.9701603 C22.7359686,14.7438547 22.6703218,14.4435685 22.6053176,14.0685051 C22.456938,13.2123792 22.3580355,12.1991384 22.3309109,11.0260416 C22.2453645,7.11960933 25.3421245,4 30.0079803,4 C34.6287112,4 37.7619941,7.14085317 37.6769262,11.0254109 C37.6529203,12.2119359 37.5515589,13.2349905 37.3970774,14.096919 C37.3320696,14.4596301 37.2663995,14.7510651 37.2075818,14.9719616 C37.232899,14.9907693 37.2580595,15.0114738 37.2829426,15.0341933 C37.5201418,15.2507686 37.6593605,15.5988494 37.6846434,16.083417 C37.7032842,16.4468957 37.6660216,16.7678654 37.5747925,17.1249738 C37.5218997,17.3320176 37.2876013,18.062089 37.2716544,18.1155893 C37.1925318,18.3810411 37.1295624,18.6298326 37.0755875,18.9031622 C36.9787995,19.3837426 36.8055846,19.7449283 36.5697773,19.9964442 C36.4353909,20.139783 36.2874085,20.2404365 36.1349891,20.3035677 C36.1197536,20.3939592 36.1030685,20.4909701 36.0850688,20.5933144 C36.0147723,20.9930109 35.9388248,21.3928411 35.8598715,21.7669173 C35.7572038,22.2533504 35.6570397,22.6600621 35.5605686,22.9646259 C35.5300802,23.0608797 35.4999171,23.1470259 35.470288,23.2218301 C35.435996,23.3092701 35.3982069,23.3994096 35.3571443,23.4920539 C35.2790003,23.6683611 35.1897642,23.8520794 35.0914987,24.0410272 C34.9641566,24.2858846 34.8281331,24.5273664 34.6921026,24.7554802 C34.6456923,24.8333069 34.602448,24.9042344 34.5633802,24.9670765 C34.5621808,24.9917624 34.5608418,25.0198989 34.5593842,25.0512819 C34.5526328,25.1966549 34.545877,25.358281 34.5395707,25.5317922 C34.522895,25.9906037 34.5123606,26.4473715 34.5109339,26.8729437 C34.5092848,27.3649654 34.520056,27.7842718 34.5451659,28.1057266 C34.5587354,28.2794406 34.5762725,28.4206992 34.5970568,28.5239955 C34.6064682,28.5707677 34.61608,28.6072917 34.6247872,28.6317075 C34.6265771,28.6367269 34.6258214,28.6355738 34.6184712,28.6265288 C34.8424925,28.8878875 35.6507147,29.2372043 36.3639163,29.3937565 C36.6674765,29.4616827 37.0104458,29.5192874 37.5747237,29.6018982 C37.6627765,29.6147893 38.0080603,29.6647723 38.0913784,29.6769538 C38.2976693,29.7071141 38.4634632,29.7320875 38.6236829,29.7574088 C39.4802464,29.8927813 40.1082935,30.0301202 40.6461045,30.2197242 C41.6999171,30.5907675 42.5988167,30.9907307 43.4839463,31.5699678 C44.7998904,32.4311342 45.6874024,33.4783277 45.9749976,34.7484794 L45.9755016,34.7507378 C46.1169059,35.3934546 45.6282771,36 44.9709605,36 L15.0368635,36 C14.3735069,36 13.8823306,35.3955037 14.0246898,34.7484794 C14.3122849,33.4783277 15.199797,32.4311342 16.5157413,31.5699678 C17.4008708,30.9907307 18.2997703,30.5907675 19.3534396,30.2197747 C19.8913941,30.0301202 20.519441,29.8927813 21.3760046,29.7574088 C21.5362242,29.7320875 21.7020181,29.7071141 21.9083089,29.6769538 C21.9916272,29.6647723 22.3369109,29.6147893 22.4249638,29.6018982 C22.9892417,29.5192874 23.3322111,29.4616827 23.6372741,29.3934234 C24.3507087,29.236823 25.1611183,28.8861909 25.3860832,28.6205494 L25.3818932,28.6256963 Z" fill="#000000"></path>
        <path d="M46.7201641,36 C46.9689369,35.5781406 47.0681146,35.0629811 46.952144,34.5358664 L46.950989,34.5306704 C46.609234,33.0213024 45.6010495,31.7603254 44.0315258,30.7332142 C43.8846164,30.6370753 43.7368272,30.5449728 43.5870974,30.4562949 C43.7274857,30.3804688 43.8368189,30.303951 43.8953775,30.2348042 L43.8921041,30.2388252 C43.88587,30.2464839 43.8852006,30.24756 43.8866408,30.2435215 C43.8934433,30.2244466 43.9009527,30.1959122 43.9083051,30.1593715 C43.924543,30.0786712 43.9382438,29.968313 43.948845,29.8325989 C43.9684622,29.5814624 43.9768772,29.2538792 43.9755886,28.8694872 C43.974474,28.537009 43.966244,28.1801591 43.9532162,27.8217126 C43.9482894,27.686157 43.9430115,27.5598866 43.9377369,27.446314 C43.9365982,27.421796 43.935552,27.3998144 43.9346151,27.3805285 C43.9040933,27.3314331 43.8703086,27.276021 43.8340507,27.2152189 C43.7277768,27.037005 43.6215083,26.8483474 43.5220224,26.6570525 C43.4452526,26.509437 43.3755369,26.3659071 43.3144868,26.2281671 C43.2824067,26.1557887 43.2528839,26.0853672 43.2264579,26.0179798 C43.2029456,25.958614 43.1793808,25.8913122 43.1555616,25.816114 C43.0801935,25.5781735 43.0019404,25.26043 42.9217313,24.8804041 C42.860049,24.5881571 42.8007149,24.2757898 42.7457958,23.9635269 C42.7317766,23.8838154 42.7187782,23.808245 42.7069049,23.7378114 C42.5897908,23.6898381 42.4759421,23.61374 42.3722605,23.5055555 C42.1832461,23.3083324 42.0457664,23.022724 41.9717339,22.641997 C41.9297852,22.4295567 41.8805903,22.2351884 41.8187757,22.0278041 C41.8063173,21.986007 41.6232717,21.4156387 41.5819493,21.2538858 C41.5106764,20.9748949 41.4815651,20.7241372 41.4961418,20.4399067 C41.5158804,20.0616011 41.624645,19.789663 41.8099569,19.6204635 C41.8300194,19.6021454 41.8503129,19.5855039 41.8707335,19.5704377 C41.8249755,19.3936365 41.7736889,19.1590379 41.7229044,18.8660196 C41.6069828,18.1971712 41.5297152,17.4055769 41.5085241,16.489095 C41.441691,13.4371948 43.8610348,11 47.5062346,11 C51.1161806,11 53.5640579,13.4537915 53.4975986,16.4886023 C53.478844,17.4155749 53.3996554,18.2148363 53.2789668,18.888218 C53.2281794,19.171586 53.1768746,19.3992696 53.1309233,19.571845 C53.1507024,19.5865385 53.170359,19.6027139 53.1897989,19.6204635 C53.3751108,19.789663 53.4838754,20.0616011 53.5036276,20.4401695 C53.5181908,20.7241372 53.4890794,20.9748949 53.4178066,21.2538858 C53.3764841,21.4156387 53.1934385,21.986007 53.18098,22.0278041 C53.1191655,22.2351884 53.0699706,22.4295567 53.0278028,22.6430955 C52.9521871,23.0185489 52.816863,23.3007252 52.6326385,23.497222 C52.5276491,23.6092055 52.4120379,23.687841 52.2929603,23.7371623 C52.2810575,23.8077806 52.2680223,23.8835704 52.25396,23.9635269 C52.1990409,24.2757898 52.1397069,24.5881571 52.0780246,24.8804041 C51.9978155,25.26043 51.9195623,25.5781735 51.8441943,25.816114 C51.8203751,25.8913122 51.7968103,25.958614 51.7736625,26.0170547 C51.7468719,26.0853672 51.7173491,26.1557887 51.685269,26.2281671 C51.624219,26.3659071 51.5545033,26.509437 51.4777334,26.6570525 C51.3782474,26.8483474 51.271979,27.037005 51.1657051,27.2152189 C51.1294471,27.276021 51.0956625,27.3314331 51.0651408,27.3805285 C51.0642038,27.3998144 51.0631576,27.421796 51.0620189,27.446314 C51.0567444,27.5598866 51.0514664,27.686157 51.0465396,27.8217126 C51.0335118,28.1801591 51.0252818,28.537009 51.0241671,28.8694872 C51.0228788,29.2538792 51.0312938,29.5814624 51.0509109,29.8325989 C51.061512,29.968313 51.0752129,30.0786712 51.0914506,30.1593715 C51.0988033,30.1959122 51.1063125,30.2244466 51.113115,30.2435215 C51.1145134,30.2474429 51.113923,30.246542 51.1081806,30.2394756 C51.2831973,30.4436621 51.9146209,30.7165659 52.4718096,30.8388723 C52.708966,30.8919396 52.9769108,30.9369432 53.4177529,31.001483 C53.4865441,31.0115541 53.7562971,31.0506034 53.8213894,31.0601201 C53.9825541,31.0836829 54.1120806,31.1031934 54.2372523,31.1229756 C54.9064425,31.2287354 55.3971043,31.3360314 55.8172691,31.4841595 C56.6405603,31.7740371 57.3428255,32.0865084 58.034333,32.5390374 C59.0624144,33.2118236 59.7557831,34.0299435 59.9804669,35.0222495 L59.9808606,35.0240139 C60.0913328,35.5261364 59.7095915,36 59.1960629,36 L46.7201641,36 Z" fill="#000000" opacity="0.49516369"></path>
        <path d="M16.4117879,30.4567696 C16.2623335,30.5453011 16.1148091,30.6372468 15.9681618,30.7332142 C14.3986379,31.7603255 13.3904533,33.0213024 13.0493788,34.5276438 C12.9323257,35.0596152 13.0316383,35.5771097 13.2813257,36 L0.810049609,36 C0.291802284,36 -0.0919292165,35.5277373 0.0192889336,35.0222495 C0.243972571,34.0299435 0.937341421,33.2118236 1.9654229,32.5390374 C2.65693028,32.0865084 3.35919557,31.7740371 4.18237468,31.484199 C4.60265161,31.3360314 5.09331326,31.2287354 5.76250357,31.1229756 C5.88767514,31.1031934 6.01720167,31.0836829 6.17836635,31.0601201 C6.24345876,31.0506034 6.51321167,31.0115541 6.58200299,31.001483 C7.02284505,30.9369432 7.29078991,30.8919396 7.52912036,30.838612 C8.08649117,30.716268 8.71962365,30.4423366 8.89537754,30.2348042 L8.89210406,30.2388252 C8.89344331,30.2244466 8.90095269,30.1959122 8.90830515,30.1593715 C8.92454297,30.0786712 8.93824381,29.968313 8.94884497,29.8325989 C8.96846219,29.5814624 8.97687717,29.2538792 8.97558859,28.8694872 C8.97447402,28.537009 8.96624404,28.1801591 8.95321619,27.8217126 C8.94828937,27.686157 8.94301155,27.5598866 8.93773689,27.446314 C8.93659821,27.421796 8.93555205,27.3998144 8.93461506,27.3805285 C8.90409331,27.3314331 8.8703086,27.276021 8.8340507,27.2152189 C8.72777684,27.037005 8.62150834,26.8483474 8.52202241,26.6570525 C8.44525256,26.509437 8.37553689,26.3659071 8.31448679,26.2281671 C8.28240667,26.1557887 8.25288387,26.0853672 8.22645794,26.0179798 C8.20294565,25.958614 8.17938076,25.8913122 8.15556159,25.816114 C8.08019355,25.5781735 8.00194036,25.26043 7.92173129,24.8804041 C7.860049,24.5881571 7.80071495,24.2757898 7.74579584,23.9635269 C7.7317766,23.8838154 7.71877822,23.808245 7.70690492,23.7378114 C7.58979081,23.6898381 7.47594209,23.61374 7.37226054,23.5055555 C7.1832461,23.3083324 7.04576639,23.022724 6.97173394,22.641997 C6.92978517,22.4295567 6.88059034,22.2351884 6.81877575,22.0278041 C6.80631732,21.986007 6.62327166,21.4156387 6.58194927,21.2538858 C6.51067644,20.9748949 6.48156507,20.7241372 6.4961418,20.4399067 C6.51588041,20.0616011 6.62464501,19.789663 6.8099569,19.6204635 C6.83001941,19.6021454 6.85031287,19.5855039 6.87073349,19.5704377 C6.8249755,19.3936365 6.77368887,19.1590379 6.72290437,18.8660196 C6.60698285,18.1971712 6.52971521,17.4055769 6.50852411,16.489095 C6.44169104,13.4371948 8.86103476,11 12.5062346,11 C16.1161806,11 18.5640579,13.4537915 18.4975986,16.4886023 C18.478844,17.4155749 18.3996554,18.2148363 18.2789668,18.888218 C18.2281794,19.171586 18.1768746,19.3992696 18.1309233,19.571845 C18.1507024,19.5865385 18.170359,19.6027139 18.1897989,19.6204635 C18.3751108,19.789663 18.4838754,20.0616011 18.5036276,20.4401695 C18.5181908,20.7241372 18.4890794,20.9748949 18.4178066,21.2538858 C18.3764841,21.4156387 18.1934385,21.986007 18.18098,22.0278041 C18.1191655,22.2351884 18.0699706,22.4295567 18.0278028,22.6430955 C17.9521871,23.0185489 17.816863,23.3007252 17.6326385,23.497222 C17.5276491,23.6092055 17.4120379,23.687841 17.2929603,23.7371623 C17.2810575,23.8077806 17.2680223,23.8835704 17.25396,23.9635269 C17.1990409,24.2757898 17.1397069,24.5881571 17.0780246,24.8804041 C16.9978155,25.26043 16.9195623,25.5781735 16.8441943,25.816114 C16.8203751,25.8913122 16.7968103,25.958614 16.7736625,26.0170547 C16.7468719,26.0853672 16.7173491,26.1557887 16.685269,26.2281671 C16.624219,26.3659071 16.5545033,26.509437 16.4777334,26.6570525 C16.3782474,26.8483474 16.271979,27.037005 16.1657051,27.2152189 C16.1294471,27.276021 16.0956625,27.3314331 16.0651408,27.3805285 C16.0642038,27.3998144 16.0631576,27.421796 16.0620189,27.446314 C16.0567444,27.5598866 16.0514664,27.686157 16.0465396,27.8217126 C16.0335118,28.1801591 16.0252818,28.537009 16.0241671,28.8694872 C16.0228788,29.2538792 16.0312938,29.5814624 16.0509109,29.8325989 C16.061512,29.968313 16.0752129,30.0786712 16.0914506,30.1593715 C16.0988033,30.1959122 16.1063125,30.2244466 16.113115,30.2435215 C16.1690811,30.3093784 16.2749993,30.3831137 16.4117879,30.4567696 Z" fill="#000000" opacity="0.49516369"></path>
    </g>
</svg>
